<?xml version="1.0" encoding="UTF-8" standalone="no"?>
<!DOCTYPE svg PUBLIC "-//W3C//DTD SVG 1.1//EN"
 "http://www.w3.org/Graphics/SVG/1.1/DTD/svg11.dtd">
<!-- Generated by graphviz version 2.47.0 (20210316.0004)
 -->
<!-- Title: dependencies Pages: 1 -->
<svg width="1100pt" height="211pt"
 viewBox="0.00 0.00 1100.00 211.00" xmlns="http://www.w3.org/2000/svg" xmlns:xlink="http://www.w3.org/1999/xlink">
<g id="graph0" class="graph" transform="scale(1 1) rotate(0) translate(4 207)">
<title>dependencies</title>
<polygon fill="white" stroke="transparent" points="-4,4 -4,-207 1096,-207 1096,4 -4,4"/>
<text text-anchor="start" x="525.01" y="-42.4" font-family="Times-12" font-weight="bold" font-size="14.00">Legend</text>
<polygon fill="#ffffb3" stroke="transparent" points="312,-10 312,-30 332,-30 332,-10 312,-10"/>
<text text-anchor="start" x="335.63" y="-15.4" font-family="Times-12" font-size="14.00"> &#160;Declarations</text>
<polygon fill="#8dd3c7" stroke="transparent" points="425,-10 425,-30 445,-30 445,-10 425,-10"/>
<text text-anchor="start" x="448.73" y="-15.4" font-family="Times-12" font-size="14.00"> &#160;Module</text>
<polygon fill="#80b1d3" stroke="transparent" points="511,-10 511,-30 531,-30 531,-10 511,-10"/>
<text text-anchor="start" x="534.78" y="-15.4" font-family="Times-12" font-size="14.00"> &#160;Bootstrap</text>
<polygon fill="#fdb462" stroke="transparent" points="608,-10 608,-30 628,-30 628,-10 608,-10"/>
<text text-anchor="start" x="631.67" y="-15.4" font-family="Times-12" font-size="14.00"> &#160;Providers</text>
<polygon fill="#fb8072" stroke="transparent" points="704,-10 704,-30 724,-30 724,-10 704,-10"/>
<text text-anchor="start" x="727.73" y="-15.4" font-family="Times-12" font-size="14.00"> &#160;Exports</text>
<g id="clust1" class="cluster">
<title>cluster_AuthModule</title>
<polygon fill="none" stroke="black" stroke-dasharray="1,5" points="8,-70 8,-195 1084,-195 1084,-70 8,-70"/>
</g>
<g id="clust3" class="cluster">
<title>cluster_AuthModule_imports</title>
<polygon fill="none" stroke="black" points="856,-78 856,-130 1076,-130 1076,-78 856,-78"/>
</g>
<g id="clust6" class="cluster">
<title>cluster_AuthModule_providers</title>
<polygon fill="none" stroke="black" points="16,-78 16,-130 848,-130 848,-78 16,-78"/>
</g>
<!-- MailModule -->
<g id="node1" class="node">
<title>MailModule</title>
<polygon fill="#8dd3c7" stroke="black" points="1067.99,-122 1064.99,-126 1043.99,-126 1040.99,-122 982.01,-122 982.01,-86 1067.99,-86 1067.99,-122"/>
<text text-anchor="middle" x="1025" y="-99.8" font-family="Times,serif" font-size="14.00">MailModule</text>
</g>
<!-- AuthModule -->
<g id="node3" class="node">
<title>AuthModule</title>
<polygon fill="#8dd3c7" stroke="black" points="677.55,-187 674.55,-191 653.55,-191 650.55,-187 590.45,-187 590.45,-151 677.55,-151 677.55,-187"/>
<text text-anchor="middle" x="634" y="-164.8" font-family="Times,serif" font-size="14.00">AuthModule</text>
</g>
<!-- MailModule&#45;&gt;AuthModule -->
<g id="edge1" class="edge">
<title>MailModule&#45;&gt;AuthModule</title>
<path fill="none" stroke="black" d="M1025,-122.29C1025,-144.21 1025,-178 1025,-178 1025,-178 687.71,-178 687.71,-178"/>
<polygon fill="black" stroke="black" points="687.71,-174.5 677.71,-178 687.71,-181.5 687.71,-174.5"/>
</g>
<!-- UploadModule -->
<g id="node2" class="node">
<title>UploadModule</title>
<polygon fill="#8dd3c7" stroke="black" points="964.26,-122 961.26,-126 940.26,-126 937.26,-122 863.74,-122 863.74,-86 964.26,-86 964.26,-122"/>
<text text-anchor="middle" x="914" y="-99.8" font-family="Times,serif" font-size="14.00">UploadModule</text>
</g>
<!-- UploadModule&#45;&gt;AuthModule -->
<g id="edge2" class="edge">
<title>UploadModule&#45;&gt;AuthModule</title>
<path fill="none" stroke="black" d="M914,-122.11C914,-141.34 914,-169 914,-169 914,-169 687.75,-169 687.75,-169"/>
<polygon fill="black" stroke="black" points="687.75,-165.5 677.75,-169 687.75,-172.5 687.75,-165.5"/>
</g>
<!-- AuthService -->
<g id="node4" class="node">
<title>AuthService</title>
<ellipse fill="#fdb462" stroke="black" cx="781" cy="-104" rx="59.11" ry="18"/>
<text text-anchor="middle" x="781" y="-99.8" font-family="Times,serif" font-size="14.00">AuthService</text>
</g>
<!-- AuthService&#45;&gt;AuthModule -->
<g id="edge3" class="edge">
<title>AuthService&#45;&gt;AuthModule</title>
<path fill="none" stroke="black" d="M781,-122.03C781,-138.4 781,-160 781,-160 781,-160 687.71,-160 687.71,-160"/>
<polygon fill="black" stroke="black" points="687.71,-156.5 677.71,-160 687.71,-163.5 687.71,-156.5"/>
</g>
<!-- GithubStrategy -->
<g id="node5" class="node">
<title>GithubStrategy</title>
<ellipse fill="#fdb462" stroke="black" cx="634" cy="-104" rx="70.08" ry="18"/>
<text text-anchor="middle" x="634" y="-99.8" font-family="Times,serif" font-size="14.00">GithubStrategy</text>
</g>
<!-- GithubStrategy&#45;&gt;AuthModule -->
<g id="edge4" class="edge">
<title>GithubStrategy&#45;&gt;AuthModule</title>
<path fill="none" stroke="black" d="M634,-122.11C634,-122.11 634,-140.99 634,-140.99"/>
<polygon fill="black" stroke="black" points="630.5,-140.99 634,-150.99 637.5,-140.99 630.5,-140.99"/>
</g>
<!-- GoogleStrategy -->
<g id="node6" class="node">
<title>GoogleStrategy</title>
<ellipse fill="#fdb462" stroke="black" cx="474" cy="-104" rx="71.79" ry="18"/>
<text text-anchor="middle" x="474" y="-99.8" font-family="Times,serif" font-size="14.00">GoogleStrategy</text>
</g>
<!-- GoogleStrategy&#45;&gt;AuthModule -->
<g id="edge5" class="edge">
<title>GoogleStrategy&#45;&gt;AuthModule</title>
<path fill="none" stroke="black" d="M474,-122.03C474,-138.4 474,-160 474,-160 474,-160 580.28,-160 580.28,-160"/>
<polygon fill="black" stroke="black" points="580.28,-163.5 590.28,-160 580.28,-156.5 580.28,-163.5"/>
</g>
<!-- JwtAccessStrategy -->
<g id="node7" class="node">
<title>JwtAccessStrategy</title>
<ellipse fill="#fdb462" stroke="black" cx="300" cy="-104" rx="83.94" ry="18"/>
<text text-anchor="middle" x="300" y="-99.8" font-family="Times,serif" font-size="14.00">JwtAccessStrategy</text>
</g>
<!-- JwtAccessStrategy&#45;&gt;AuthModule -->
<g id="edge6" class="edge">
<title>JwtAccessStrategy&#45;&gt;AuthModule</title>
<path fill="none" stroke="black" d="M300,-122.11C300,-141.34 300,-169 300,-169 300,-169 580.34,-169 580.34,-169"/>
<polygon fill="black" stroke="black" points="580.34,-172.5 590.34,-169 580.34,-165.5 580.34,-172.5"/>
</g>
<!-- JwtRefreshStrategy -->
<g id="node8" class="node">
<title>JwtRefreshStrategy</title>
<ellipse fill="#fdb462" stroke="black" cx="111" cy="-104" rx="86.81" ry="18"/>
<text text-anchor="middle" x="111" y="-99.8" font-family="Times,serif" font-size="14.00">JwtRefreshStrategy</text>
</g>
<!-- JwtRefreshStrategy&#45;&gt;AuthModule -->
<g id="edge7" class="edge">
<title>JwtRefreshStrategy&#45;&gt;AuthModule</title>
<path fill="none" stroke="black" d="M111,-122.29C111,-144.21 111,-178 111,-178 111,-178 580.31,-178 580.31,-178"/>
<polygon fill="black" stroke="black" points="580.31,-181.5 590.31,-178 580.31,-174.5 580.31,-181.5"/>
</g>
</g>
</svg>
